<?xml version="1.0" standalone="no"?>
<!DOCTYPE svg PUBLIC "-//W3C//DTD SVG 20010904//EN"
 "http://www.w3.org/TR/2001/REC-SVG-20010904/DTD/svg10.dtd">
<svg version="1.0" xmlns="http://www.w3.org/2000/svg"
 width="1080.000000pt" height="360.000000pt" viewBox="0 0 1080.000000 360.000000"
 preserveAspectRatio="xMidYMid meet">

<g transform="translate(0.000000,360.000000) scale(0.100000,-0.100000)"
fill="#000000" stroke="none">
<path d="M5232 2440 c-25 -27 -40 -80 -48 -170 -3 -41 -15 -101 -26 -132 -14
-39 -19 -72 -15 -100 6 -58 97 -246 136 -282 17 -17 31 -36 31 -43 0 -9 14
-13 44 -13 42 0 45 -3 99 -71 68 -84 80 -123 75 -245 -2 -58 1 -94 7 -94 6 0
11 22 13 48 3 42 7 51 30 62 78 37 253 11 260 -37 l3 -23 515 0 c488 0 514 1
514 18 0 10 -5 23 -11 29 -30 30 26 42 91 20 l35 -12 5 -115 5 -115 28 -3 c27
-3 31 3 104 155 86 180 95 221 64 285 -11 25 -21 62 -21 84 0 51 -14 64 -67
64 -38 0 -49 6 -86 43 -57 56 -89 100 -125 171 -28 54 -29 61 -17 91 8 17 19
69 25 116 18 132 -20 277 -74 287 -34 7 -66 -9 -82 -39 -12 -25 -21 -30 -40
-26 -13 2 -32 -1 -41 -8 -15 -11 -15 -13 4 -19 31 -10 47 -60 45 -142 -1 -79
-21 -134 -48 -134 -9 0 -14 -6 -11 -12 2 -8 20 -13 42 -13 25 0 40 -5 43 -15
2 -8 12 -24 22 -35 18 -22 70 -135 70 -154 0 -8 -200 -11 -747 -11 l-748 0
-43 73 -42 72 32 3 c44 5 64 24 78 80 l11 46 16 -32 c12 -24 22 -32 43 -32 35
0 44 12 60 79 13 56 9 147 -10 214 -11 36 -13 38 -48 35 -27 -2 -40 -9 -48
-27 -12 -24 -13 -24 -23 15 -17 61 -37 84 -76 84 -21 0 -41 -8 -53 -20z m188
-190 c16 -30 3 -62 -23 -58 -35 5 -37 78 -3 78 9 0 20 -9 26 -20z m1365 -20
c0 -18 -6 -35 -12 -37 -9 -3 -13 8 -13 37 0 29 4 40 13 38 6 -3 12 -20 12 -38z
m-1037 -528 c23 -21 39 -41 36 -45 -4 -4 -58 -7 -121 -7 -82 0 -115 3 -117 13
-3 6 -7 27 -10 45 l-5 32 87 0 c87 0 87 0 130 -38z m1320 -4 l-3 -43 -120 -3
-120 -2 -50 45 -50 44 173 1 173 0 -3 -42z m-217 -75 c13 -16 12 -17 -3 -4
-17 13 -22 21 -14 21 2 0 10 -8 17 -17z m-984 -35 c1 -13 -1 -33 -3 -45 -4
-23 -7 -23 -144 -23 l-140 0 0 24 c0 13 -3 31 -6 40 -5 13 12 16 133 19 76 1
143 4 148 5 6 1 11 -8 12 -20z m1251 -16 c5 -55 -8 -62 -118 -62 l-97 0 -7 38
c-11 66 -16 63 107 60 l112 -3 3 -33z"/>
<path d="M3593 2357 c-5 -9 -33 -16 -81 -19 -40 -3 -79 -11 -85 -17 -7 -7 -19
-33 -28 -59 l-16 -47 -63 -7 c-35 -4 -69 -9 -77 -12 -9 -4 -13 -33 -12 -116 0
-64 -4 -117 -10 -124 -6 -7 -7 -16 -3 -20 4 -4 9 -177 12 -384 l5 -377 178 -3
177 -2 2 47 c3 95 5 107 27 125 35 27 167 58 254 58 l37 0 0 75 c0 81 18 135
46 135 13 0 14 -5 8 -22 -4 -13 -8 -61 -8 -107 l-1 -85 66 -12 c108 -20 160
-57 138 -97 -7 -11 -7 -17 0 -17 5 0 11 -21 13 -47 l3 -48 35 57 c19 32 37 58
40 58 3 0 19 -30 36 -66 30 -62 30 -65 12 -75 -10 -5 -16 -14 -13 -20 8 -12
92 -12 100 1 3 5 -8 65 -25 134 -17 69 -31 155 -31 193 -1 37 -3 60 -6 50 -6
-23 -41 -37 -76 -30 -46 9 -48 22 -22 126 14 54 25 104 25 111 0 7 -25 30 -55
50 -46 30 -63 36 -109 36 l-53 0 -5 52 c-3 32 -11 54 -19 57 -8 2 1 9 20 16
40 13 53 35 22 35 -17 0 -21 6 -21 35 0 31 3 35 28 36 15 1 31 1 36 0 4 -1 19
5 32 14 21 13 24 23 24 77 0 46 -4 64 -17 73 -14 10 -88 12 -337 7 l-319 -5 7
33 c3 19 14 42 23 52 20 22 78 24 87 3 4 -11 22 -15 75 -15 76 0 87 11 72 68
-7 26 -11 27 -73 30 -49 2 -69 -1 -75 -11z m7 -367 c0 -19 -11 -26 -23 -14 -8
8 3 34 14 34 5 0 9 -9 9 -20z m92 -12 c-9 -9 -15 -9 -24 0 -10 10 -10 15 2 22
20 12 38 -6 22 -22z m93 14 c0 -18 -20 -15 -23 4 -3 10 1 15 10 12 7 -3 13
-10 13 -16z m90 0 c0 -18 -20 -15 -23 4 -3 10 1 15 10 12 7 -3 13 -10 13 -16z
m362 -544 c-3 -8 -6 -5 -6 6 -1 11 2 17 5 13 3 -3 4 -12 1 -19z"/>
<path d="M9141 2316 c-19 -20 -24 -46 -42 -217 -11 -107 -19 -240 -17 -297 3
-90 1 -102 -14 -102 -9 0 -19 -3 -21 -7 -3 -5 6 -8 19 -8 13 0 24 4 24 9 0 4
7 6 15 2 8 -3 26 -1 38 3 l24 9 6 264 c3 146 11 277 16 291 10 26 13 27 89 27
l79 0 -7 -47 c-4 -27 -13 -108 -20 -180 l-12 -133 -51 0 -50 0 7 -110 c5 -95
4 -110 -9 -110 -21 0 -19 -9 8 -31 18 -15 39 -18 108 -19 52 0 91 -5 101 -12
20 -16 35 -78 19 -78 -6 0 -11 -5 -11 -11 0 -5 4 -8 9 -5 4 3 13 -6 19 -19 12
-26 24 -29 105 -25 37 1 47 -1 47 -14 0 -19 -11 -20 -29 -3 -11 10 -13 10 -7
0 4 -8 1 -13 -8 -13 -8 0 -37 -18 -65 -40 -32 -26 -51 -35 -51 -26 0 8 5 17
10 19 6 3 5 4 -2 3 -8 -2 -12 -16 -10 -35 1 -17 -2 -31 -8 -31 -5 0 -9 -6 -7
-12 1 -10 -20 -13 -81 -13 -77 0 -85 2 -102 25 -11 14 -20 34 -20 44 0 40 -24
85 -49 95 -35 14 -174 30 -240 29 -32 -1 -56 3 -58 9 -3 7 -14 8 -31 4 -19 -6
-26 -14 -24 -27 1 -10 3 -26 4 -34 1 -8 -2 -67 -6 -131 l-8 -115 34 -45 c33
-43 33 -44 11 -44 -13 0 -23 3 -23 6 0 4 -19 3 -42 -2 -24 -4 -56 -5 -72 -2
-21 5 -33 1 -43 -12 -12 -17 -13 -17 -13 -2 0 9 4 17 8 17 5 0 23 18 41 41 37
46 43 32 -53 132 -69 71 -90 112 -105 197 -6 37 -18 90 -27 119 -15 51 -16 52
-42 44 -15 -4 -68 -8 -119 -8 -84 0 -92 -2 -97 -20 -10 -36 -6 -310 5 -370 6
-33 19 -76 30 -97 l19 -38 -25 -6 c-14 -3 -30 -14 -35 -23 -8 -14 -9 -14 -10
2 0 14 -7 16 -37 12 -21 -2 -78 -8 -128 -11 -81 -7 -86 -8 -50 -15 46 -10
1010 -13 1024 -4 6 3 86 7 180 8 154 3 194 7 179 22 -2 3 -76 6 -164 7 l-159
3 35 36 c32 33 37 35 55 23 14 -10 56 -14 154 -14 l135 0 34 -32 c33 -33 33
-33 145 -35 182 -3 249 24 282 110 13 33 22 44 38 44 12 0 39 1 60 2 l37 1 0
110 0 110 188 2 187 3 0 30 0 30 -355 5 -355 5 -12 35 c-7 19 -12 56 -12 82
-1 28 -9 61 -22 82 -17 29 -19 41 -10 72 11 41 6 58 -14 50 -17 -6 -18 -2 -45
149 -21 115 -47 180 -86 219 -14 15 -10 16 50 16 72 0 110 -11 144 -42 19 -18
22 -32 22 -90 l0 -68 60 0 61 0 -3 78 -3 77 -35 3 c-22 2 -48 16 -71 37 -21
19 -55 38 -76 44 -22 6 -143 11 -289 11 -250 0 -251 0 -273 -24z m357 -54 c12
-8 32 -28 43 -44 l21 -29 -24 -22 c-15 -14 -24 -33 -23 -51 0 -34 19 -46 29
-19 4 10 2 19 -3 21 -6 2 -11 8 -11 13 0 6 5 7 10 4 6 -3 10 -1 10 4 0 6 6 11
14 11 9 0 19 -36 34 -117 11 -65 18 -120 16 -123 -10 -9 -24 26 -24 60 -1 35
-1 34 -24 -20 -22 -54 -23 -55 -62 -53 -38 2 -36 0 19 -17 19 -7 26 -6 21 2
-4 6 -1 9 6 6 8 -2 16 -10 18 -17 3 -9 -7 -11 -39 -7 -100 14 -119 19 -113 27
3 5 0 9 -5 9 -6 0 -11 -6 -11 -12 -1 -26 -29 25 -35 63 -6 32 -2 48 20 86 22
39 28 65 32 138 3 50 10 95 15 102 10 13 29 8 66 -15z m-131 -390 c6 -10 38
-29 72 -41 34 -12 61 -25 61 -28 0 -7 -72 3 -122 17 -33 10 -38 15 -38 40 0
34 10 38 27 12z m268 -231 c3 -5 1 -12 -5 -16 -5 -3 -10 1 -10 9 0 18 6 21 15
7z m-1196 -126 c25 -78 90 -201 128 -244 30 -34 47 -44 80 -48 l42 -6 -13 -31
-12 -31 -112 -5 c-62 -3 -112 -2 -112 2 0 3 -10 4 -22 2 -13 -2 -17 -2 -10 2
17 8 15 80 -4 188 -12 74 -13 102 -4 159 13 73 18 75 39 12z m1482 -18 c-8
-10 -7 -14 4 -14 8 0 15 6 15 14 0 15 26 18 35 3 3 -5 -2 -10 -12 -11 -14 0
-15 -2 -3 -7 12 -6 14 -21 9 -77 -3 -38 -6 -62 -7 -53 -1 10 -17 35 -36 55
-27 31 -33 44 -29 71 3 20 11 32 20 32 12 0 13 -3 4 -13z m-151 -26 c0 -5 -9
-7 -20 -4 -11 3 -20 7 -20 9 0 2 9 4 20 4 11 0 20 -4 20 -9z m-732 -138 c31
-41 0 -103 -52 -103 -53 0 -78 84 -33 115 25 18 66 12 85 -12z m615 16 c28
-15 37 -28 37 -56 0 -29 -33 -63 -62 -63 -55 0 -81 83 -36 114 27 19 33 19 61
5z m-640 -226 c-7 -2 -21 -2 -30 0 -10 3 -4 5 12 5 17 0 24 -2 18 -5z"/>
<path d="M9430 2073 c0 -4 5 -15 10 -23 8 -13 10 -13 10 2 0 9 -4 20 -10 23
-5 3 -10 3 -10 -2z"/>
<path d="M9402 2047 c-12 -14 -12 -58 0 -51 4 3 4 12 1 20 -3 9 0 20 8 24 7 5
11 12 8 15 -4 3 -11 0 -17 -8z"/>
<path d="M9425 1993 c3 -25 1 -45 -6 -49 -8 -4 -7 -9 2 -15 24 -15 29 -10 29
26 0 19 -5 35 -11 35 -5 0 -8 4 -5 8 2 4 0 14 -5 22 -6 10 -7 1 -4 -27z"/>
<path d="M9370 1970 c0 -5 5 -10 11 -10 5 0 7 5 4 10 -3 6 -8 10 -11 10 -2 0
-4 -4 -4 -10z"/>
<path d="M9977 2244 c-4 -4 -7 -40 -7 -81 l0 -73 60 0 61 0 -3 78 -3 77 -50 3
c-28 2 -54 0 -58 -4z"/>
<path d="M725 2200 l-270 -5 -2 -348 c-1 -191 0 -354 3 -362 4 -8 15 -15 25
-15 18 0 19 -10 19 -154 0 -148 -1 -154 -21 -159 -12 -3 -19 -12 -17 -19 3 -9
27 -14 71 -16 62 -3 67 -1 67 18 0 14 -7 20 -21 20 -20 0 -21 4 -15 46 3 26 6
96 6 155 l0 109 100 0 100 0 0 -155 c0 -131 -2 -155 -15 -155 -8 0 -15 -9 -15
-20 0 -18 7 -20 65 -20 58 0 65 2 65 20 0 11 -7 20 -15 20 -13 0 -15 24 -15
155 l0 155 195 0 194 0 3 -77 3 -78 30 0 30 0 3 108 3 107 194 0 194 0 3 -107
3 -108 33 -3 32 -3 0 110 0 111 85 0 c79 0 85 1 85 21 0 11 -5 29 -10 40 -8
13 -7 25 1 40 9 17 16 20 42 14 18 -4 49 -7 70 -6 20 0 49 1 65 1 15 1 46 -2
68 -6 26 -3 44 -2 48 5 9 14 53 14 61 1 8 -12 152 -13 159 -1 3 4 -3 16 -14
26 -19 17 -56 18 -680 16 l-660 -3 0 84 0 84 42 32 c54 41 83 41 131 -3 21
-19 40 -35 43 -35 2 0 3 82 2 183 l-3 182 -150 0 c-82 0 -271 -2 -420 -5z
m212 -132 c-3 -8 -6 -5 -6 6 -1 11 2 17 5 13 3 -3 4 -12 1 -19z m189 -433 c11
-27 -5 -65 -26 -65 -23 0 -27 15 -5 24 8 3 15 12 15 21 0 8 -7 15 -15 15 -8 0
-15 5 -15 10 0 16 40 12 46 -5z m142 3 c30 -30 0 -75 -43 -64 -19 5 -25 13
-25 35 0 15 3 31 7 34 11 11 48 8 61 -5z m148 -13 c11 -43 -34 -73 -64 -43
-27 27 -6 68 35 68 16 0 24 -7 29 -25z m144 10 c10 -12 10 -21 2 -40 -13 -29
-43 -33 -66 -9 -19 18 -19 20 -6 45 13 23 52 25 70 4z m140 0 c26 -32 -13 -81
-47 -59 -35 22 -23 74 17 74 10 0 23 -7 30 -15z m150 -5 c8 -14 8 -26 0 -40
-19 -35 -80 -20 -80 20 0 40 61 55 80 20z"/>
<path d="M1224 1619 c-3 -6 -1 -16 5 -22 9 -9 14 -8 21 3 9 15 4 30 -10 30 -5
0 -12 -5 -16 -11z"/>
<path d="M1364 1619 c-10 -17 13 -36 27 -22 12 12 4 33 -11 33 -5 0 -12 -5
-16 -11z"/>
<path d="M1512 1614 c4 -21 22 -23 26 -1 2 10 -3 17 -13 17 -10 0 -15 -6 -13
-16z"/>
<path d="M1654 1619 c-10 -17 13 -36 27 -22 12 12 4 33 -11 33 -5 0 -12 -5
-16 -11z"/>
<path d="M1800 1610 c0 -13 5 -20 13 -17 6 2 12 10 12 17 0 7 -6 15 -12 18 -8
2 -13 -5 -13 -18z"/>
<path d="M2831 2156 c-10 -11 -9 -16 5 -24 15 -8 15 -10 0 -15 -21 -8 -20 -23
3 -46 17 -17 45 -15 41 3 -1 3 1 20 5 37 11 47 -27 78 -54 45z"/>
<path d="M8383 2103 c-7 -2 -13 -10 -13 -17 0 -16 36 -46 46 -38 4 4 4 2 0 -5
-4 -7 -13 -10 -21 -6 -8 3 -15 0 -15 -7 0 -6 9 -14 21 -17 16 -5 18 -8 7 -15
-11 -8 -10 -9 1 -6 8 2 20 24 27 49 12 39 12 45 -3 57 -18 13 -29 14 -50 5z"/>
<path d="M5053 2073 c-7 -2 -13 -18 -13 -33 0 -16 -4 -32 -10 -35 -21 -13 -9
-27 18 -20 30 7 54 25 34 25 -20 0 -13 17 9 23 17 5 19 9 9 26 -11 21 -23 24
-47 14z"/>
<path d="M8092 2068 c-12 -12 -17 -38 -6 -38 14 0 36 32 27 41 -5 5 -14 4 -21
-3z"/>
<path d="M7420 2044 c-8 -19 -6 -33 8 -59 16 -33 18 -34 30 -15 10 17 10 20
-4 20 -9 0 -14 6 -11 13 2 6 12 12 22 12 23 0 31 21 15 40 -19 23 -49 18 -60
-11z"/>
<path d="M4304 2036 c-22 -24 -26 -67 -7 -82 55 -42 131 14 90 67 -16 21 -69
31 -83 15z"/>
<path d="M2945 2010 c6 -10 -31 -90 -43 -90 -4 0 -12 -10 -17 -22 -6 -13 -18
-22 -28 -22 -9 1 -17 -2 -17 -6 0 -4 -7 -11 -16 -14 -12 -5 -15 -2 -10 10 4
10 2 14 -6 11 -7 -2 -12 -9 -11 -15 3 -13 -58 -37 -115 -47 -33 -5 -63 -1
-133 21 -68 21 -92 25 -101 16 -25 -25 40 -53 167 -73 39 -6 75 -16 82 -21 13
-10 74 -4 130 13 45 14 106 87 133 159 23 62 22 90 -5 90 -9 0 -13 -4 -10 -10z"/>
<path d="M2900 1964 c0 -8 5 -12 10 -9 6 3 10 10 10 16 0 5 -4 9 -10 9 -5 0
-10 -7 -10 -16z"/>
<path d="M9773 1945 c0 -22 2 -30 4 -17 2 12 2 30 0 40 -3 9 -5 -1 -4 -23z"/>
<path d="M7525 1962 c-33 -8 -49 -41 -61 -132 l-7 -50 54 -1 c48 -1 122 -15
92 -18 -6 -1 -14 -10 -18 -20 -3 -11 -18 -24 -33 -29 -19 -7 -2 -8 58 -4 47 2
86 6 88 7 1 1 -2 15 -8 30 -15 38 -6 57 35 79 20 11 34 25 31 32 -3 7 -8 28
-11 48 -7 37 -20 53 -45 54 -8 1 -44 3 -80 6 -36 3 -78 2 -95 -2z"/>
<path d="M10220 1956 c0 -8 5 -18 10 -21 6 -3 10 3 10 14 0 12 -4 21 -10 21
-5 0 -10 -6 -10 -14z"/>
<path d="M2846 1922 l-29 -37 34 32 c18 18 31 35 28 37 -3 3 -18 -12 -33 -32z"/>
<path d="M8228 1889 c-38 -22 -68 -43 -68 -48 0 -17 26 -31 58 -31 30 0 33 -2
22 -15 -14 -17 -92 -20 -152 -6 -22 5 -38 5 -38 0 0 -5 7 -9 15 -9 8 0 15 -4
15 -9 0 -15 27 -21 147 -31 106 -10 118 -9 161 10 53 24 88 53 108 92 20 38
17 48 -5 18 -17 -21 -22 -23 -46 -12 -14 7 -24 8 -21 3 3 -5 -13 -20 -36 -34
-53 -30 -105 -41 -112 -24 -3 9 -5 9 -5 0 -1 -7 -8 -13 -18 -13 -14 0 -14 2 2
20 18 20 51 28 40 10 -3 -5 -2 -10 4 -10 5 0 13 5 16 10 3 6 2 10 -4 10 -5 0
-11 25 -13 55 l-3 55 -67 -41z"/>
<path d="M5036 1903 c-6 -14 -5 -15 5 -6 7 7 10 15 7 18 -3 3 -9 -2 -12 -12z"/>
<path d="M5035 1881 c-25 -5 -30 -11 -30 -36 0 -27 3 -30 38 -33 29 -3 37 -7
37 -23 0 -11 -11 -24 -25 -31 -26 -12 -31 -23 -15 -33 11 -7 90 13 90 23 0 4
-7 37 -16 75 -18 71 -18 71 -79 58z"/>
<path d="M5190 1861 c0 -5 5 -13 10 -16 6 -3 10 -2 10 4 0 5 -4 13 -10 16 -5
3 -10 2 -10 -4z"/>
<path d="M2745 1850 c-3 -5 -2 -10 4 -10 5 0 13 5 16 10 3 6 2 10 -4 10 -5 0
-13 -4 -16 -10z"/>
<path d="M7385 1834 c-4 -16 -8 -35 -11 -41 -2 -7 0 -13 5 -13 5 0 11 17 13
38 6 45 1 55 -7 16z"/>
<path d="M8335 1820 c-8 -13 5 -13 25 0 13 8 13 10 -2 10 -9 0 -20 -4 -23 -10z"/>
<path d="M7296 1724 c-8 -20 -8 -19 24 -29 l25 -8 -20 24 c-11 13 -20 25 -21
27 -1 2 -4 -5 -8 -14z"/>
<path d="M2712 1432 l3 -257 41 -3 c53 -4 55 1 62 156 5 119 5 122 20 92 28
-59 168 -155 215 -148 12 2 24 14 30 31 9 27 5 33 -68 103 l-78 74 7 88 6 88
-83 1 c-50 1 -97 7 -120 17 l-37 15 2 -257z"/>
<path d="M8940 1680 c0 -5 5 -10 10 -10 6 0 10 5 10 10 0 6 -4 10 -10 10 -5 0
-10 -4 -10 -10z"/>
<path d="M5260 1659 c0 -3 6 -14 14 -24 11 -16 27 -20 80 -20 63 0 65 1 52 20
-10 16 -28 21 -80 25 -36 3 -66 2 -66 -1z"/>
<path d="M9200 1661 c0 -5 7 -12 16 -15 14 -5 15 -4 4 9 -14 17 -20 19 -20 6z"/>
<path d="M8862 1640 c0 -14 2 -19 5 -12 2 6 2 18 0 25 -3 6 -5 1 -5 -13z"/>
<path d="M8896 1644 c-9 -25 -7 -62 5 -69 20 -13 59 4 59 26 0 49 -49 82 -64
43z"/>
<path d="M9385 1640 c-3 -5 1 -10 10 -10 9 0 13 5 10 10 -3 6 -8 10 -10 10 -2
0 -7 -4 -10 -10z"/>
<path d="M9425 1630 c-3 -5 -1 -10 4 -10 6 0 11 5 11 10 0 6 -2 10 -4 10 -3 0
-8 -4 -11 -10z"/>
<path d="M9210 1620 c0 -5 5 -10 11 -10 5 0 7 5 4 10 -3 6 -8 10 -11 10 -2 0
-4 -4 -4 -10z"/>
<path d="M9250 1610 c0 -5 7 -7 15 -4 8 4 15 8 15 10 0 2 -7 4 -15 4 -8 0 -15
-4 -15 -10z"/>
<path d="M5082 1555 c-12 -27 -23 -27 -95 -5 -34 11 -30 22 -61 -155 -40 -230
-40 -224 -22 -231 30 -11 16 -24 -24 -22 -22 1 -40 6 -40 12 0 7 -3 7 -8 0 -8
-14 -240 -23 -259 -11 -6 4 -15 33 -18 65 -10 87 -33 180 -58 234 -18 40 -26
48 -42 44 -11 -3 -32 -6 -47 -6 l-26 0 16 -52 c9 -29 19 -55 23 -58 3 -3 11
-27 18 -54 13 -53 48 -127 64 -138 7 -4 0 -12 -16 -19 -48 -22 -34 -41 27 -37
37 2 52 -1 49 -8 -8 -23 269 -33 311 -12 12 7 16 7 12 0 -4 -6 41 -9 123 -8
71 0 124 4 117 9 -6 4 12 6 39 6 61 -2 95 8 95 27 0 8 -4 14 -10 14 -5 0 -10
-7 -10 -17 0 -14 -2 -15 -17 -1 -10 9 -31 14 -48 12 -16 -2 -24 -1 -18 2 7 3
17 23 23 45 13 48 50 293 50 332 0 27 0 27 -54 21 -47 -6 -55 -4 -68 15 l-15
21 -11 -25z m11 -197 c-4 -95 -8 -185 -8 -200 0 -16 -3 -28 -7 -28 -5 0 -8 4
-8 8 0 5 -22 7 -50 5 -27 -1 -50 0 -50 2 0 3 13 31 29 63 39 78 69 169 83 252
7 39 14 70 15 70 2 0 0 -78 -4 -172z m-636 -10 c-3 -8 -6 -5 -6 6 -1 11 2 17
5 13 3 -3 4 -12 1 -19z m503 -208 c0 -5 -4 -10 -9 -10 -6 0 -13 5 -16 10 -3 6
1 10 9 10 9 0 16 -4 16 -10z m167 -6 c-3 -3 -12 -4 -19 -1 -8 3 -5 6 6 6 11 1
17 -2 13 -5z"/>
<path d="M7456 1524 c-3 -9 -6 -39 -6 -67 0 -29 -7 -96 -15 -149 -8 -53 -13
-119 -12 -147 l2 -51 48 0 c35 0 47 4 45 13 -3 6 -14 13 -26 15 -20 3 -20 3
-2 35 11 18 26 58 34 89 16 64 41 256 34 264 -3 2 -18 0 -34 -6 -23 -9 -31 -8
-40 4 -14 20 -20 20 -28 0z"/>
<path d="M7312 1480 c4 -41 2 -44 -46 -84 -27 -22 -63 -53 -79 -68 -15 -16
-35 -28 -43 -28 -18 0 -18 -14 2 -56 19 -39 39 -45 32 -10 -4 22 -1 24 44 28
74 8 137 51 170 118 14 30 29 72 31 93 6 37 6 37 -31 37 -20 0 -48 3 -61 7
-22 6 -23 4 -19 -37z"/>
<path d="M9505 1479 c18 -5 33 -5 39 1 7 7 -4 10 -29 9 -40 -1 -40 -1 -10 -10z"/>
<path d="M9498 1453 c7 -3 16 -2 19 1 4 3 -2 6 -13 5 -11 0 -14 -3 -6 -6z"/>
<path d="M9265 1439 c-4 -6 -5 -12 -2 -15 2 -3 7 2 10 11 7 17 1 20 -8 4z"/>
<path d="M9323 1353 c9 -2 23 -2 30 0 6 3 -1 5 -18 5 -16 0 -22 -2 -12 -5z"/>
<path d="M3101 1304 c-17 -35 -23 -74 -11 -74 11 0 32 65 28 87 -2 12 -7 9
-17 -13z"/>
<path d="M4110 1250 c-8 -5 -10 -10 -5 -10 6 0 17 5 25 10 8 5 11 10 5 10 -5
0 -17 -5 -25 -10z"/>
<path d="M4038 1223 c7 -3 16 -2 19 1 4 3 -2 6 -13 5 -11 0 -14 -3 -6 -6z"/>
<path d="M3758 1213 c6 -2 18 -2 25 0 6 3 1 5 -13 5 -14 0 -19 -2 -12 -5z"/>
<path d="M3978 1213 c6 -2 18 -2 25 0 6 3 1 5 -13 5 -14 0 -19 -2 -12 -5z"/>
<path d="M2695 1151 c-3 -5 0 -13 6 -16 15 -10 101 4 94 16 -8 12 -92 12 -100
0z"/>
<path d="M9450 1146 c0 -9 5 -16 10 -16 6 0 10 4 10 9 0 6 -4 13 -10 16 -5 3
-10 -1 -10 -9z"/>
<path d="M2520 1120 l0 -25 112 3 c134 4 188 15 187 40 0 10 -3 12 -6 5 -7
-20 -77 -35 -107 -23 -14 5 -26 13 -26 17 0 5 -36 8 -80 8 -79 0 -80 0 -80
-25z"/>
<path d="M2830 1129 c0 -5 5 -7 10 -4 6 3 10 8 10 11 0 2 -4 4 -10 4 -5 0 -10
-5 -10 -11z"/>
<path d="M5278 1123 c7 -3 16 -2 19 1 4 3 -2 6 -13 5 -11 0 -14 -3 -6 -6z"/>
<path d="M7938 1123 c12 -2 32 -2 45 0 12 2 2 4 -23 4 -25 0 -35 -2 -22 -4z"/>
</g>
</svg>
